<svg width="20" height="20" viewBox="0 0 20 20" fill="none" xmlns="http://www.w3.org/2000/svg">
<path fill-rule="evenodd" clip-rule="evenodd" d="M4.16699 4.16667C3.70675 4.16667 3.33366 4.53976 3.33366 5V16.6667C3.33366 17.1269 3.70675 17.5 4.16699 17.5H15.8337C16.2939 17.5 16.667 17.1269 16.667 16.6667V5C16.667 4.53976 16.2939 4.16667 15.8337 4.16667H4.16699ZM1.66699 5C1.66699 3.61929 2.78628 2.5 4.16699 2.5H15.8337C17.2144 2.5 18.3337 3.61929 18.3337 5V16.6667C18.3337 18.0474 17.2144 19.1667 15.8337 19.1667H4.16699C2.78628 19.1667 1.66699 18.0474 1.66699 16.6667V5Z" fill="#CDCED1"/>
<path fill-rule="evenodd" clip-rule="evenodd" d="M13.3333 0.833252C13.7936 0.833252 14.1667 1.20635 14.1667 1.66659V4.99992C14.1667 5.46016 13.7936 5.83325 13.3333 5.83325C12.8731 5.83325 12.5 5.46016 12.5 4.99992V1.66659C12.5 1.20635 12.8731 0.833252 13.3333 0.833252Z" fill="#CDCED1"/>
<path fill-rule="evenodd" clip-rule="evenodd" d="M6.66634 0.833252C7.12658 0.833252 7.49967 1.20635 7.49967 1.66659V4.99992C7.49967 5.46016 7.12658 5.83325 6.66634 5.83325C6.2061 5.83325 5.83301 5.46016 5.83301 4.99992V1.66659C5.83301 1.20635 6.2061 0.833252 6.66634 0.833252Z" fill="#CDCED1"/>
<path fill-rule="evenodd" clip-rule="evenodd" d="M1.66699 8.33333C1.66699 7.8731 2.04009 7.5 2.50033 7.5H17.5003C17.9606 7.5 18.3337 7.8731 18.3337 8.33333C18.3337 8.79357 17.9606 9.16667 17.5003 9.16667H2.50033C2.04009 9.16667 1.66699 8.79357 1.66699 8.33333Z" fill="#CDCED1"/>
</svg>
