<svg width="20" height="20" viewBox="0 0 20 20" fill="none" xmlns="http://www.w3.org/2000/svg">
<path fill-rule="evenodd" clip-rule="evenodd" d="M9.99967 2.49992C5.85754 2.49992 2.49967 5.85778 2.49967 9.99992C2.49967 14.1421 5.85754 17.4999 9.99967 17.4999C14.1418 17.4999 17.4997 14.1421 17.4997 9.99992C17.4997 5.85778 14.1418 2.49992 9.99967 2.49992ZM0.833008 9.99992C0.833008 4.93731 4.93706 0.833252 9.99967 0.833252C15.0623 0.833252 19.1663 4.93731 19.1663 9.99992C19.1663 15.0625 15.0623 19.1666 9.99967 19.1666C4.93706 19.1666 0.833008 15.0625 0.833008 9.99992Z" fill="#CDCED1"/>
<path fill-rule="evenodd" clip-rule="evenodd" d="M10.0003 4.16675C10.4606 4.16675 10.8337 4.53984 10.8337 5.00008V9.48505L13.7063 10.9214C14.118 11.1272 14.2848 11.6278 14.079 12.0394C13.8732 12.4511 13.3726 12.6179 12.961 12.4121L9.62765 10.7454C9.34533 10.6043 9.16699 10.3157 9.16699 10.0001V5.00008C9.16699 4.53984 9.54009 4.16675 10.0003 4.16675Z" fill="#CDCED1"/>
</svg>
