<svg width="20" height="20" viewBox="0 0 20 20" fill="none" xmlns="http://www.w3.org/2000/svg">
<path d="M19.3876 0.404962C19.3295 0.260474 19.2181 0.143915 19.0763 0.0795341C18.9345 0.0151529 18.7734 0.00790636 18.6264 0.0593019C18.4795 0.110697 18.3579 0.216778 18.2872 0.355475C18.2164 0.494172 18.2019 0.654807 18.2466 0.803962C19.1756 3.47396 17.3316 5.46796 15.9256 6.53596L15.3576 5.72196C15.1666 5.44896 14.7396 5.22196 14.4076 5.21796L11.2196 5.23196C10.8301 5.24372 10.4511 5.36051 10.1226 5.56996L0.728559 12.157C0.510054 12.3107 0.361379 12.5448 0.315085 12.8079C0.268791 13.0711 0.328651 13.3419 0.481559 13.561L4.75056 19.669C5.07056 20.124 5.58156 20.069 6.03756 19.751L15.4316 13.163C15.7016 12.972 16.0136 12.56 16.1236 12.245L17.1216 9.09996C17.2316 8.78596 17.1646 8.30696 16.9736 8.03396L16.6276 7.53796C18.5156 6.09096 20.4756 3.53396 19.3876 0.404962ZM15.0166 9.76296C14.8435 9.8841 14.6483 9.96996 14.442 10.0156C14.2358 10.0613 14.0225 10.0659 13.8145 10.0291C13.6065 9.9923 13.4078 9.9149 13.2297 9.80129C13.0516 9.68768 12.8976 9.54009 12.7766 9.36696C12.5315 9.01662 12.4354 8.58335 12.5095 8.16226C12.5836 7.74117 12.8217 7.36667 13.1716 7.12096C13.4459 6.92878 13.7734 6.8271 14.1083 6.83015C14.4432 6.8332 14.7688 6.94082 15.0396 7.13796C14.7676 7.30196 14.5806 7.39796 14.5456 7.41296C14.4216 7.47207 14.3214 7.57152 14.2614 7.69504C14.2013 7.81855 14.185 7.95879 14.2151 8.09278C14.2452 8.22677 14.3199 8.34657 14.427 8.43254C14.5341 8.51851 14.6672 8.56555 14.8046 8.56596C14.8906 8.56596 14.9786 8.54596 15.0616 8.50696C15.2556 8.41496 15.4636 8.30596 15.6806 8.17696C15.7305 8.47702 15.6946 8.78508 15.5772 9.06567C15.4597 9.34626 15.2654 9.58796 15.0166 9.76296Z" fill="#4378FE"/>
</svg>
