<svg width="16" height="16" viewBox="0 0 16 16" fill="none" xmlns="http://www.w3.org/2000/svg">
<path d="M7.70114 1.93872C7.82342 1.691 8.17667 1.691 8.29895 1.93872L9.98256 5.34954C10.0311 5.44782 10.1248 5.51598 10.2333 5.53183L13.9988 6.08222C14.2721 6.12216 14.381 6.45811 14.1832 6.65083L11.459 9.30418C11.3804 9.38076 11.3445 9.49114 11.363 9.59931L12.0059 13.3474C12.0526 13.6197 11.7667 13.8274 11.5222 13.6988L8.1552 11.9281C8.05807 11.877 7.94202 11.877 7.8449 11.9281L4.47792 13.6988C4.23338 13.8274 3.94753 13.6197 3.99424 13.3474L4.63708 9.59931C4.65563 9.49114 4.61974 9.38076 4.54112 9.30418L1.81694 6.65083C1.61907 6.45811 1.728 6.12216 2.00131 6.08222L5.76684 5.53183C5.87529 5.51598 5.96901 5.44782 6.01753 5.34954L7.70114 1.93872Z" fill="#4378FE"/>
</svg>
